<svg xmlns="http://www.w3.org/2000/svg" width="256" height="256"><path fill-opacity=".016" d="M0 128.004v128.004l128.25-.254 128.25-.254.254-127.75L257.008 0H0v128.004m.485.496c0 70.4.119 99.053.265 63.672.146-35.38.146-92.98 0-128C.604 29.153.485 58.1.485 128.5" fill="#1976D2" fill-rule="evenodd"/><path fill-opacity=".243" d="M106.5 1.622C44.451 12.814 0 65.562 0 128c0 70.807 57.193 128 128 128 51.794 0 98.614-31.26 118.332-79.005 3.952-9.569 7.398-21.89 8.327-29.773.343-2.903 1.01-5.517 1.482-5.809.472-.292.859-6.831.859-14.531s-.389-13.759-.865-13.465c-.476.294-1.143-1.817-1.482-4.691-.924-7.835-4.379-20.174-8.321-29.721-16.743-40.541-53.662-69.919-97.258-77.39-11.553-1.979-31.578-1.976-42.574.007m3.394 28.934C73.085 37.22 43.234 64.565 32.448 101.5c-3.554 12.17-4.426 31.089-2.021 43.826 7.186 38.058 33.366 66.909 71.073 78.322 8.322 2.519 10.319 2.724 26.5 2.724 16.181 0 18.178-.205 26.5-2.724 37.707-11.413 63.887-40.264 71.073-78.322 2.409-12.756 1.533-31.664-2.03-43.826-3.195-10.907-7.072-19.449-12.735-28.062-3.81-5.796-4.335-6.245-5.047-4.32-.582 1.572-.156 2.986 1.586 5.27 1.31 1.717 3.959 6.27 5.887 10.117 18.286 36.483 12.689 77.804-14.657 108.202-4.263 4.738-16.611 15.293-17.891 15.293-.292 0-1.039-1.539-1.66-3.421-1.634-4.951-6.42-11.15-10.896-14.112-3.467-2.294-3.937-3.102-4.359-7.494-.614-6.395-4.453-12.196-9.669-14.612l-4.015-1.861.579-5.123c1.157-10.227-5.388-20.977-14.854-24.4-3.425-1.239-3.493-1.372-3.546-6.988-.054-5.709-.029-5.757 8.429-16.357 4.665-5.848 8.837-10.632 9.271-10.632.434 0 1.349.675 2.034 1.5.685.825 2.09 1.5 3.122 1.5 2.707 0 2.417 3.927-.622 8.405-1.375 2.026-2.5 4.255-2.5 4.952 0 1.471 5.136 6.643 6.597 6.643 1.692 0 9.129-8.294 11.403-12.718 1.193-2.32 2.664-7.109 3.269-10.643.927-5.413 1.546-6.689 3.927-8.096 5.049-2.982 14.651-12.562 18.761-18.717 5.073-7.597 8.747-19.113 9.196-28.826l.347-7.5-7.5.347c-9.713.449-21.229 4.123-28.826 9.196-6.185 4.13-15.738 13.718-18.752 18.82-1.446 2.448-2.507 2.969-6.989 3.432-2.905.3-7.327 1.449-9.825 2.554C128.83 75.963 119 84.442 119 86.45c0 1.723 5.339 6.55 7.246 6.55.9 0 1.916-.453 2.258-1.007.802-1.298 5.252-3.534 8.651-4.348 2.307-.552 2.586-.369 2.125 1.393-.302 1.153.193 2.827 1.147 3.881 1.6 1.769 1.198 2.245-8.769 10.382l-10.446 8.529-5.96-.541c-3.498-.317-7.476-.04-9.628.67-3.465 1.144-3.86 1.041-7.159-1.856-1.921-1.686-4.945-3.817-6.721-4.735-4.103-2.122-15.549-2.98-19.833-1.487-2.819.983-3.546.871-5.35-.824-3.314-3.113-9.428-5.216-14.294-4.917-4.25.261-4.545.103-5.924-3.175-.798-1.898-2.336-4.393-3.418-5.545-1.96-2.086-1.957-2.111.746-7.007 9.738-17.634 24.441-31.55 42.691-40.406 15.375-7.461 24.096-9.434 41.638-9.421 15.903.012 22.765 1.281 35.705 6.601 5.236 2.153 7.675 2.7 8.922 2.002 1.508-.844 1.362-1.141-1.206-2.454-16.451-8.408-41.71-11.766-61.527-8.179m77.23 14.022c-9.592 2.579-18.525 8.059-26.046 15.977-7.179 7.558-15.257 20.066-17.28 26.757l-1.152 3.812 5.615 5.615 5.615 5.615 3.812-1.152c6.691-2.023 19.199-10.101 26.757-17.28C195.132 73.77 202 59.439 202 47.29V43l-4.75.066c-2.613.036-7.169.716-10.126 1.512m-10.051 12.057c-2.806 3.566-2.655 7.874.382 10.91C182.51 72.601 191 69.189 191 62.102c0-7.555-9.387-11.24-13.927-5.467m2.492 2.293c-2.204 2.436-1.275 5.791 2.018 7.292 4.568 2.081 8.449-4.045 4.846-7.649-2.117-2.116-4.75-1.979-6.864.357m-40.241 16.511c-5.22 1.633-10.001 4.56-13.613 8.336-2.401 2.51-2.584 3.085-1.317 4.137 1.172.972 1.948.91 3.802-.305 1.282-.84 4.8-2.153 7.817-2.919 4.712-1.196 5.803-1.944 7.721-5.29 3.442-6.008 3.107-6.309-4.41-3.959m25.926 25.888c-3.343 1.626-4.252 2.612-4.26 4.62-.005 1.404-1.137 4.974-2.514 7.933-1.962 4.214-2.25 5.687-1.332 6.793 2.766 3.334 13.364-12.088 12.677-18.448l-.321-2.966-4.25 2.068M.397 128c0 7.975.156 11.238.346 7.25.189-3.988.189-10.513 0-14.5-.19-3.987-.346-.725-.346 7.25m43.955 23.012c.332 1.657 1.578 5.28 2.77 8.051 3.089 7.179 5.302 6.548 8.988-2.563 3.423-8.461 3.447-8.723.764-8.32-1.459.22-2.666 1.705-3.844 4.728-1.837 4.714-2.109 4.635-3.976-1.158-.877-2.719-1.772-3.75-3.257-3.75-1.743 0-1.958.447-1.445 3.012m20.244-1.706c-2.778 2.032-1.678 5.903 2.233 7.856 4.994 2.494 5.122 3.171.488 2.58-3.217-.41-4.322-.172-4.784 1.032-.792 2.064 1.149 3.192 5.526 3.211 7.486.032 9.52-5.948 3.112-9.147-4.873-2.434-5.129-3.129-.983-2.666 2.876.321 3.787.03 4.141-1.322.249-.954.202-1.985-.104-2.292-1.074-1.073-7.859-.546-9.629.748m16.654-.644c-.882.356-1.25 3.424-1.25 10.421 0 9.911.001 9.917 2.5 9.917 2 0 2.5-.5 2.5-2.5 0-1.921.521-2.504 2.25-2.515 6.292-.043 9.061-8.765 4.295-13.53-2.349-2.35-6.936-3.148-10.295-1.793M99 150c0 1.547.667 2 2.941 2 1.618 0 3.219.45 3.559 1 .345.558-.415 1-1.718 1-3.094 0-6.782 2.665-6.782 4.902 0 3.325 3.377 5.242 8.644 4.907l4.856-.309-.014-6.34c-.015-7.385-1.503-9.16-7.677-9.16-3.142 0-3.809.35-3.809 2m18.455.455c-5.736 5.735-1.596 13.545 7.18 13.545 3.655 0 4.365-.316 4.365-1.943 0-1.57-.814-2.001-4.25-2.25-4.132-.298-4.25-.404-4.25-3.807 0-3.268.231-3.522 3.491-3.831 6.391-.607 6.309-4.169-.095-4.169-2.9 0-4.656.669-6.441 2.455m17 0c-3.272 3.271-3.248 7.842.056 11.147 2.036 2.036 3.316 2.454 6.75 2.205 5.11-.37 6.059-3.129 1.239-3.6-5.585-.545-6.072-1.595-1-2.155 4.86-.537 4.991-.636 4.675-3.552-.703-6.494-7.073-8.693-11.72-4.045m30.102.768c-3.727 5.32.519 13.697 6.243 12.318 1.485-.358 3.263-1.387 3.95-2.287 1.755-2.297 1.559-8.802-.321-10.683-2.391-2.39-8.001-2.02-9.872.652M182 156c0 5.556.31 7 1.5 7 1.15 0 1.5-1.271 1.5-5.441 0-2.993.47-5.731 1.044-6.086 2.133-1.319 3.956 1.745 3.956 6.649 0 3.669.372 4.878 1.5 4.878 1.136 0 1.5-1.23 1.5-5.066 0-7.366-1.147-8.934-6.535-8.934H182v7m18.573-5.43c-4.084 4.084-2.336 11.498 2.937 12.458 4.117.751 7.45.031 6.869-1.483-.278-.725-1.508-1.052-2.935-.779-2.406.46-5.444-1.152-5.444-2.888 0-.483 2.188-.878 4.861-.878 4.757 0 4.851-.059 4.366-2.75-.272-1.512-.94-3.312-1.484-4-1.392-1.761-7.295-1.556-9.17.32m-33.002 2.001c-1.958 1.959-2.004 4.463-.13 6.988 1.151 1.55 1.806 1.719 3.25.84 2.181-1.327 2.914-5.965 1.259-7.959-1.528-1.842-2.433-1.814-4.379.131m35.658-.4c-1.985 1.985-1.434 2.829 1.844 2.829 2.381 0 2.998-.392 2.739-1.739-.413-2.144-2.93-2.743-4.583-1.09M85 156c0 3.411.311 4.087 1.75 3.81 1.266-.244 1.75-1.298 1.75-3.81s-.484-3.566-1.75-3.81c-1.439-.277-1.75.399-1.75 3.81m52.5-3c-.352.569.509 1 2 1s2.352-.431 2-1c-.34-.55-1.24-1-2-1s-1.66.45-2 1m-34.833 4.667c-1.268 1.267-.659 2.333 1.333 2.333 1.111 0 2-.667 2-1.5 0-1.522-2.115-2.051-3.333-.833m51.806 2.377c-.918 1.485 1.398 3.943 3.1 3.29 2.192-.842 1.778-4.334-.514-4.334-1.068 0-2.231.47-2.586 1.044M94.001 175.25c0 3.828.249 4.264 2.5 4.394 2.556.148 3.33-1.012 1.45-2.174-.716-.443-.678-1.094.123-2.059 1.072-1.292.603-1.834-1.324-1.529-.412.065-.75-.557-.75-1.382 0-.825-.45-1.5-1-1.5s-1 1.912-.999 4.25M80.5 173.834c-.931.931-.507 6.166.5 6.166.55 0 1-.675 1-1.5s.45-1.5 1-1.5 1 .675 1 1.5.479 1.5 1.063 1.5c.594 0 .925-1.402.75-3.173-.244-2.471-.811-3.208-2.563-3.333-1.238-.088-2.476.065-2.75.34m7.047.09c-.314.509.222 1.131 1.191 1.384 1.632.426 1.627.469-.061.576-2.62.167-1.692 3.54 1.083 3.936 1.888.269 2.24-.147 2.24-2.643 0-1.779-.632-3.206-1.582-3.57-2.059-.79-2.196-.775-2.871.317m13.493.528c-1.77 2.133-.851 5.001 1.72 5.368 2.366.337 3.117-1.3.99-2.158-.734-.296-.513-.537.535-.583 1.471-.065 1.597-.432.715-2.079-1.27-2.373-2.324-2.519-3.96-.548m7.21-.785c-1.478.591-1.705 6.333-.25 6.333.55 0 1-1.125 1-2.5s.338-2.387.75-2.25.896-.189 1.075-.725c.385-1.155-.825-1.558-2.575-.858m5.817.752c-.93 1.121-.799 1.64.628 2.47 1.739 1.012 1.739 1.051-.004 1.081-.995.016-1.531.48-1.191 1.03.956 1.547 3.493 1.182 4.177-.601.338-.88-.014-1.999-.781-2.485-1.083-.685-1.102-.887-.087-.899.72-.008 1.031-.465.691-1.015-.861-1.393-2.05-1.248-3.433.419m6.6-.752c-.761.76-.923 8.333-.178 8.333.268 0 1.393-.775 2.5-1.722 2.401-2.056 2.644-5.821.429-6.671-1.958-.752-1.94-.752-2.751.06m6.333.26c0 .59.536 1.073 1.191 1.073s.362.607-.653 1.348c-2.159 1.579-1.278 3.652 1.552 3.652 2.394 0 3.605-2.674 2.212-4.886-1.19-1.89-4.302-2.749-4.302-1.187m7.2.273c-1.694 1.694-1.49 4.475.382 5.193 2.288.878 3.418.748 3.418-.393 0-.55-.675-1-1.5-1s-1.5-.464-1.5-1.031c0-.568.675-1.291 1.5-1.607.825-.317 1.5-.978 1.5-1.469 0-1.291-2.396-1.097-3.8.307m6 0c-.66.66-1.2 1.73-1.2 2.378 0 1.943 2.843 3.7 4.737 2.927 1.627-.664 1.608-.783-.237-1.542-1.702-.7-1.739-.833-.25-.893.963-.038 1.75-.43 1.75-.87 0-.934-2.125-3.2-3-3.2-.33 0-1.14.54-1.8 1.2m-18.121 2.383c.048 1.165.285 1.402.604.605.289-.722.253-1.585-.079-1.917-.332-.332-.568.258-.525 1.312M80 187.5c0 4.919 1.616 6.158 2.284 1.75l.416-2.75.15 2.75c.197 3.604 2.15 3.578 2.15-.028 0-2.34-2.815-6.222-4.511-6.222-.269 0-.489 2.025-.489 4.5m20 0c0 4.259 1.237 5.978 2.338 3.25.403-1 .52-1 .583 0 .186 2.936 1.679.935 1.679-2.25 0-3.488-.979-4.625-1.938-2.25-.277.688-.54.238-.583-1-.151-4.306-2.079-2.22-2.079 2.25M87.5 186c-.34.55-.029 1.007.691 1.015 1.015.012.996.214-.087.899-1.89 1.197-.573 4.322 1.643 3.9 2.14-.408 2.941-4.763 1.09-5.936-1.765-1.119-2.589-1.089-3.337.122m6.7.2c-.66.66-1.2 1.73-1.2 2.378 0 1.938 2.843 3.699 4.737 2.934 1.564-.632 1.502-.813-.551-1.604-2.43-.936-2.137-2.908.432-2.908.825 0 1.222-.45.882-1-.837-1.354-2.84-1.26-4.3.2m13 0c-.66.66-1.2 1.73-1.2 2.378 0 1.943 2.843 3.7 4.737 2.927 1.627-.664 1.608-.783-.237-1.542-1.702-.7-1.739-.833-.25-.893.963-.038 1.75-.43 1.75-.87 0-.934-2.125-3.2-3-3.2-.33 0-1.14.54-1.8 1.2m7.05-.538c-1.489.601-1.676 4.957-.25 5.838.55.34 1-.323 1-1.472 0-1.15.675-2.35 1.5-2.666.825-.317 1.5-.978 1.5-1.469 0-.953-1.701-1.058-3.75-.231m6.073.939c-.338.88.014 1.999.781 2.485.998.631 1.039.888.146.899-.687.008-1.25.465-1.25 1.015 0 1.384 3.721 1.261 4.594-.152.391-.633-.118-1.758-1.132-2.5-1.015-.741-1.308-1.348-.653-1.348s1.191-.45 1.191-1c0-1.63-3.01-1.138-3.677.601m6.344-.934c-.795.794-.906 8.333-.123 8.333.299 0 1.695-1.068 3.103-2.373 2.172-2.014 2.387-2.695 1.421-4.5-1.124-2.1-3.104-2.757-4.401-1.46m6.833.333c-.34.55-.029 1.007.691 1.015 1.015.012.996.214-.087.899-1.89 1.197-.573 4.322 1.643 3.9 2.14-.408 2.941-4.763 1.09-5.936-1.765-1.119-2.589-1.089-3.337.122m6.7.2c-.66.66-1.2 1.73-1.2 2.378 0 1.938 2.843 3.699 4.737 2.934 1.564-.632 1.502-.813-.551-1.604-2.43-.936-2.137-2.908.432-2.908.825 0 1.222-.45.882-1-.837-1.354-2.84-1.26-4.3.2m6.963-.321c-2.141 1.356-1.015 5.571 1.587 5.941 2.637.374 3.067-1.46.5-2.131-1.606-.419-1.6-.467.073-.573 1.135-.072 1.701-.746 1.5-1.783-.391-2.018-1.853-2.598-3.66-1.454M128 188.559c0 .857.457 1.276 1.016.931.559-.346.758-1.047.441-1.559-.857-1.387-1.457-1.129-1.457.628" fill="#1976D2" fill-rule="evenodd"/><path fill-opacity=".047" d="M113 1.018C83.953 5.06 60.492 16.139 40.237 35.38 21.04 53.615 8.419 76.132 2.896 102c-3.169 14.842-3.169 37.158 0 52 10.68 50.018 49.102 88.42 99.17 99.116 14.744 3.15 37.124 3.15 51.868 0 42.504-9.08 77.327-38.473 92.958-78.462 4-10.231 8.108-27.46 8.108-34.002 0-1.944.45-3.812 1-4.152.55-.34 1-4.668 1-9.618 0-5.745-.362-8.777-1-8.382-.597.369-1-.854-1-3.034 0-6.649-4.079-23.814-8.108-34.12-15.646-40.027-50.96-69.796-92.958-78.361C142.143.58 122.818-.349 113 1.018m4.054 28.064c-24.097 2.922-44.788 13.324-61.168 30.75-16.182 17.216-24.594 35.83-26.791 59.284-2.676 28.57 6.711 55.689 26.599 76.848a98.899 98.899 0 0 0 144.612 0c17.737-18.87 26.788-41.427 26.87-66.964.07-21.623-4.754-38.242-16.256-56-3.889-6.005-4.284-6.334-5.183-4.326-.8 1.785-.161 3.482 3.575 9.5 7.885 12.699 12.259 25.983 13.566 41.203 2.287 26.643-5.366 50.527-22.716 70.892C194.876 196.474 182.864 207 181.07 207c-.439 0-1.556-1.983-2.482-4.407C176.976 198.37 168.327 189 166.043 189c-.574 0-1.043-1.185-1.043-2.634 0-7.343-5.072-15.749-11.282-18.696-3.335-1.582-3.349-1.618-2.921-7.542.749-10.359-4.862-19.309-14.701-23.445-3.167-1.332-3.319-1.642-3.405-6.933-.091-5.499-.032-5.611 8.359-16.019l8.45-10.481 2.314 1.819c1.272 1.001 2.96 1.571 3.75 1.268.79-.303 1.436-.038 1.436.588 0 1.891-2.966 8.38-4.713 10.31-1.533 1.694-1.422 2.03 1.734 5.287 1.854 1.913 3.958 3.478 4.675 3.478 2.169 0 9.07-7.605 11.812-13.016 1.417-2.796 2.895-7.536 3.284-10.532.69-5.306.89-5.587 7.662-10.746 12.697-9.672 20.814-23.098 23.585-39.007.611-3.511.965-7.917.786-9.791-.293-3.07-.663-3.44-3.733-3.733-1.874-.179-6.28.175-9.791.786-15.909 2.771-29.335 10.888-39.007 23.585-5.159 6.772-5.44 6.972-10.746 7.662-2.996.389-7.736 1.867-10.532 3.284C126.605 77.234 119 84.135 119 86.304c0 .717 1.565 2.821 3.478 4.675 3.197 3.099 3.621 3.245 5.25 1.816 4.698-4.121 12.046-6.253 10.855-3.15-.356.928.109 2.463 1.069 3.523 1.014 1.12 1.326 2.213.774 2.705-.509.455-5.222 4.244-10.472 8.422l-9.547 7.596-4.192-1.064c-3.337-.847-5.196-.736-9.109.544l-4.917 1.608-3.345-3.144c-6.513-6.122-16.467-8.845-24.921-6.816-4.305 1.032-5.267.98-6.758-.37C64.178 99.946 58.268 98 53.046 98c-4.717 0-5.101-.196-6.378-3.25-.747-1.787-2.103-3.868-3.013-4.622-2.644-2.193-2.016-4.229 4.233-13.714 20.143-30.577 53.926-46.977 89.292-43.348 9.39.964 19.685 3.558 30.039 7.568 3.82 1.48 4.962 1.585 5.992.555 1.667-1.667.651-2.289-10.211-6.255-14.743-5.382-31.856-7.561-45.946-5.852m72.196 15.435c-18.188 3.951-32.594 16.822-43.37 38.75l-3.326 6.767 6.206 6.206 6.206 6.206 6.767-3.326c16.653-8.184 28.268-18.586 34.194-30.624 3.095-6.287 6.021-17.277 6.056-22.746.015-2.456-.331-2.741-3.233-2.671-1.787.044-6.062.691-9.5 1.438m-9.75 9.597c-3.249 1.843-4.5 4.041-4.5 7.903 0 6.11 6.187 9.767 12.455 7.362 2.517-.966 4.757-6.136 4.052-9.348-1.142-5.2-7.634-8.399-12.007-5.917m1.105 4.185c-1.182.865-1.664 2.287-1.441 4.25.286 2.512.818 2.998 3.579 3.264 2.663.257 3.451-.145 4.408-2.246.974-2.138.868-2.889-.647-4.563-2.115-2.337-3.448-2.496-5.899-.705M135.5 77.355c-8.448 3.945-13.543 9.264-10.61 11.077.49.303 2.852-.52 5.25-1.829 2.398-1.308 5.967-2.659 7.93-3.002 2.821-.493 3.923-1.364 5.25-4.147.924-1.937 1.68-3.732 1.68-3.988 0-1.208-4.994-.216-9.5 1.889m29.25 24.713c-2.972 1.569-3.75 2.562-3.75 4.786 0 1.544-1.103 4.986-2.452 7.65-1.348 2.664-2.222 5.215-1.941 5.669 2.403 3.888 11.207-7.335 12.921-16.47.793-4.227.392-4.364-4.778-1.635M.36 128c0 5.225.169 7.363.375 4.75.206-2.613.206-6.888 0-9.5S.36 122.775.36 128m64.806 21.597c-3.34 2.339-2.458 5.523 2.126 7.677 4.523 2.125 3.989 4.057-.87 3.145-2.664-.499-3.422-.308-3.422.863 0 3.099 6.573 3.694 10.016.906 3.075-2.49 1.925-5.722-2.564-7.204-4.451-1.469-4.426-2.984.048-2.984 2.325 0 3.5-.468 3.5-1.393 0-2.835-5.355-3.448-8.834-1.01m17.584-.943c-1.516.427-1.75 1.82-1.75 10.419 0 7.953.285 9.927 1.434 9.927.82 0 1.568-1.176 1.75-2.75.257-2.241.748-2.689 2.652-2.423 3.64.511 6.164-2.474 6.164-7.291 0-2.284-.562-4.909-1.25-5.831-1.329-1.783-6.093-2.869-9-2.051m17.5.008C97.504 149.77 99.007 152 102.5 152c2.411 0 3.5.457 3.5 1.469 0 .809-.596 1.24-1.328.959-.73-.28-2.53-.052-4 .506-2.074.789-2.672 1.686-2.672 4.006 0 3.668 2.609 5.298 7.792 4.868l3.708-.308.295-6.161c.262-5.451.034-6.345-1.972-7.75-2.233-1.564-5.118-1.917-7.573-.927m19.071.527c-4.125 1.994-5.233 8.613-2.098 12.535 1.256 1.571 7.004 2.656 9.639 1.82 2.958-.939 1.532-3.421-1.908-3.324-3.335.095-5.954-1.727-5.954-4.142 0-2.592 2.077-4.078 5.7-4.078 2.154 0 3.3-.484 3.3-1.393 0-2.562-4.718-3.333-8.679-1.418m16.982-.014c-3.296 1.625-4.572 6.246-2.857 10.351 1.108 2.65 2.152 3.496 4.971 4.024 4.209.79 6.583.084 6.583-1.958 0-.972-1.248-1.577-3.673-1.782-5.599-.473-5.525-2.81.09-2.81 4.121 0 4.583-.233 4.583-2.309 0-4.804-5.174-7.747-9.697-5.516m29.332.898c-2.048 1.61-2.635 2.948-2.635 6 0 7.388 6.6 10.418 11.664 5.354 2.144-2.145 2.476-3.187 1.985-6.25-.619-3.871-3.672-7.177-6.625-7.177-.965 0-2.94.933-4.389 2.073m17.073-1.419c-1.546.439-1.752 1.494-1.5 7.667.24 5.883.604 7.217 2.042 7.492 1.511.288 1.75-.495 1.75-5.74 0-5.281.246-6.073 1.883-6.073 2.126 0 3.083 2.567 3.103 8.323.011 3.038.359 3.757 1.693 3.5.923-.178 1.598-.661 1.5-1.073-.099-.412-.186-3.113-.194-6-.009-2.887-.383-5.828-.831-6.535-.898-1.416-6.627-2.363-9.446-1.561m17.747 1.801c-5.329 5.328-1.247 13.981 6.301 13.355 2.546-.212 3.829-.846 4.047-1.999.253-1.335-.57-1.755-3.914-2-6.336-.465-6.313-2.811.028-2.811 4.454 0 5.083-.253 5.083-2.045 0-2.661-4.322-6.955-7-6.955-1.15 0-3.195 1.105-4.545 2.455m-155.926.795c1.668 5.654 5.54 12.897 6.706 12.543 1.437-.435 5.321-7.864 6.348-12.142 1.138-4.744-2.596-2.982-4.448 2.099-.851 2.338-1.852 4.25-2.223 4.25-.371 0-1.184-2.025-1.808-4.5-.882-3.504-1.587-4.5-3.186-4.5-1.659 0-1.925.432-1.389 2.25M84 155.823c0 2.391.532 4.167 1.341 4.477 2.387.917 3.818-.894 3.483-4.405-.252-2.638-.826-3.466-2.574-3.715-2.009-.285-2.25.106-2.25 3.643m53-2.323c0 .933.944 1.5 2.5 1.5s2.5-.567 2.5-1.5-.944-1.5-2.5-1.5-2.5.567-2.5 1.5m30.667-.833c-1.192 1.192-.704 6.058.727 7.245 1.076.893 1.76.791 3-.449 1.708-1.708 1.982-3.319.999-5.881-.612-1.594-3.49-2.151-4.726-.915m35.042-.043c-1.486 1.486-.597 2.376 2.374 2.376 2.02 0 2.942-.431 2.672-1.25-.467-1.418-3.972-2.2-5.046-1.126m-101.104 5.206c-.864 1.397 2.119 3.49 3.965 2.781.878-.336 1.411-1.174 1.185-1.862-.505-1.533-4.347-2.219-5.15-.919m53.406 1.657c-1.468 1.769-.656 4.513 1.335 4.513.775 0 1.969-.675 2.654-1.5.993-1.197.993-1.803 0-3-1.565-1.886-2.433-1.889-3.989-.013M94.215 175c-.031 2.475.176 3.919.461 3.208.378-.94.872-.998 1.818-.213 1.008.837 1.266.539 1.152-1.331-.084-1.388-.642-2.219-1.316-1.96-.644.247-1.37-.598-1.614-1.878-.244-1.279-.469-.301-.501 2.174M80 176.434c0 1.411.498 2.566 1.107 2.566s.885-.579.614-1.286c-.288-.749.245-1.285 1.279-1.285 1.034 0 1.567.536 1.279 1.285-.271.707.036 1.286.684 1.286s1.033-1.011.857-2.25c-.229-1.611-1.101-2.34-3.07-2.566-2.368-.273-2.75.04-2.75 2.25m8.803-1.815c.987.441.865.918-.5 1.963-1.572 1.203-1.61 1.509-.303 2.383 2.19 1.463 3.5.702 3.5-2.035 0-1.654-.623-2.479-2-2.649-1.1-.135-1.414.017-.697.338m11.529.959c-.776 2.022 2.043 4.926 3.756 3.868.954-.59.787-.984-.654-1.548-1.686-.66-1.71-.766-.184-.828.963-.038 1.75-.745 1.75-1.57 0-2.001-3.895-1.937-4.668.078m6.668.922c0 1.375.45 2.5 1 2.5s1-.867 1-1.927c0-1.059.787-2.132 1.75-2.384 1.077-.281.692-.502-1-.573-2.298-.097-2.75.295-2.75 2.384m7-1c0 .825.563 1.507 1.25 1.515.92.012.892.243-.107.875-.746.473-.949 1.112-.452 1.419.497.307 1.558.13 2.357-.394 1.237-.812 1.182-1.16-.37-2.347-1.762-1.348-1.762-1.409 0-1.865 1.459-.377 1.374-.494-.428-.587-1.385-.071-2.25.461-2.25 1.384m6 1.93c0 1.964.45 3.57 1 3.57s1-.45 1-1 .706-1 1.57-1c2.57 0 1.355-4.44-1.32-4.82-1.973-.28-2.25.121-2.25 3.25m8.5-2.43c1.803.775 1.82.866.177.93-1.181.045-1.705.687-1.487 1.82.543 2.819 3.274 2.066 3.626-1 .267-2.315-.049-2.739-2-2.68-2.185.067-2.203.119-.316.93m4.806.645c-.733 1.91 2.398 4.663 4.091 3.596.694-.436.453-.823-.647-1.041-.963-.191-1.75-.956-1.75-1.7s.787-1.559 1.75-1.811c1.299-.339 1.162-.487-.531-.573-1.276-.065-2.56.609-2.913 1.529m6.694.785c0 1.414.188 2.57.418 2.57.23 0 1.13.273 2 .607.87.334 1.582.142 1.582-.427 0-.568-.787-1.239-1.75-1.491-1.271-.332-1.111-.489.583-.573 2.902-.144 2.373-2.489-.661-2.936-1.749-.257-2.172.182-2.172 2.25m-17.921.153c.048 1.165.285 1.402.604.605.289-.722.253-1.585-.079-1.917-.332-.332-.568.258-.525 1.312M81.008 183c-.835 2.778-.858 8-.036 8 .565 0 1.028-.927 1.028-2.059 0-1.206.443-1.785 1.068-1.399.588.363.827 1.29.532 2.059-.296.77-.101 1.399.431 1.399 1.469 0 1.159-3.788-.384-4.7-.745-.44-1.609-1.475-1.921-2.3-.313-.825-.636-1.275-.718-1M100 186.875c0 3.497.251 3.875 2.575 3.875 1.711 0 2.241-.334 1.578-.997-.548-.548-.73-1.691-.405-2.539.389-1.012.19-1.294-.578-.819-.749.463-1.17-.019-1.17-1.336 0-1.132-.45-2.059-1-2.059s-1 1.744-1 3.875m-11 .056c1.292.894 1.257 1.041-.25 1.054-2.05.018-2.365 2.565-.409 3.315 2.015.774 3.903-.796 3.496-2.908-.198-1.028-1.255-2.011-2.348-2.184-1.643-.261-1.728-.135-.489.723m4.649.54c-.713 1.859 2.121 4.794 3.682 3.812.793-.5.606-.848-.581-1.083-.963-.191-1.75-.956-1.75-1.7s.787-1.559 1.75-1.811c1.38-.36 1.297-.481-.393-.573-1.179-.064-2.397.546-2.708 1.355m13 0c-.695 1.812 2.101 4.802 3.615 3.866.696-.43.389-.962-.83-1.439-1.789-.701-1.767-.763.285-.828 1.547-.049 2.044-.524 1.643-1.57-.74-1.927-3.976-1.947-4.713-.029m7.487 1.279c.112 2.264.212 2.363.562.561.234-1.203 1.185-2.389 2.113-2.634 1.197-.315 1.033-.479-.561-.561-1.846-.095-2.226.378-2.114 2.634m5.864-1.719c0 .568.755 1.321 1.677 1.675 1.514.581 1.496.707-.184 1.296-1.023.359-1.419.926-.879 1.26.54.333 1.606.22 2.369-.252 1.107-.684 1.14-1.157.161-2.337-.974-1.173-.961-1.585.064-1.997.711-.285.279-.554-.958-.597-1.237-.043-2.25.385-2.25.952m6.844-.281c-.518 2.484-.293 6.25.372 6.25.431 0 .784-.45.784-1s.675-1 1.5-1c.933 0 1.5-.944 1.5-2.5 0-1.833-.533-2.5-2-2.5-1.1 0-2.07.338-2.156.75m8.156.181c1.292.894 1.257 1.041-.25 1.054-2.05.018-2.365 2.565-.409 3.315 2.015.774 3.903-.796 3.496-2.908-.198-1.028-1.255-2.011-2.348-2.184-1.643-.261-1.728-.135-.489.723m4.649.54c-.713 1.859 2.121 4.794 3.682 3.812.793-.5.606-.848-.581-1.083-.963-.191-1.75-.956-1.75-1.7s.787-1.559 1.75-1.811c1.38-.36 1.297-.481-.393-.573-1.179-.064-2.397.546-2.708 1.355m6.685.1c-.742 1.936 2.301 4.773 3.997 3.724.598-.369.218-.96-.897-1.397-1.794-.703-1.801-.763-.101-.828 2.221-.085 1.677-2.439-.669-2.894-.918-.178-1.967.45-2.33 1.395m-18.334.87c0 .857.45 1.559 1 1.559s1-.423 1-.941-.45-1.219-1-1.559c-.55-.34-1 .084-1 .941" fill="#1976D2" fill-rule="evenodd"/><path fill-opacity=".332" d="M118 1.165c-36.579 2.561-70.391 21.327-92.648 51.42-28.436 38.45-32.569 90.876-10.549 133.83C36.549 228.836 79.823 255.09 128 255.09c61.721 0 113.325-42.614 125.088-103.299 1.052-5.424 1.912-12.744 1.912-16.267 0-3.523.45-6.684 1-7.024.55-.34 1-1.068 1-1.618s-.45-.722-1-.382c-.628.388-1-1.811-1-5.906 0-20.601-10.052-48.673-24.352-68.009C204.204 16.83 162.985-1.985 118 1.165m-4.186 27.843c-11.007 1.751-18.422 4.146-29.314 9.468C51.052 54.82 30.202 86.375 28.324 123.5c-2.223 43.913 25.759 84.71 67.976 99.109 51.789 17.663 108.721-10.838 126.576-63.367 7.798-22.942 6.286-50.028-4.032-72.242-4.729-10.182-10.958-20.104-12.344-19.662-2.348.748-1.264 4.735 3.394 12.486 5.604 9.324 10.493 23.013 12.207 34.176 1.446 9.422.582 28.292-1.695 37-4.063 15.546-12.32 30.49-23.376 42.308-5.502 5.883-14.819 13.692-16.335 13.692-.295 0-.827-1.324-1.182-2.942-.921-4.193-5.825-10.574-10.505-13.672-3.238-2.142-4.012-3.25-4.03-5.769-.044-6.225-5.05-14.051-10.932-17.093-2.746-1.42-2.892-1.825-2.807-7.761.149-10.459-5.468-19.463-14.489-23.226-3.672-1.531-3.75-1.675-3.75-6.922 0-5.203.236-5.654 8.092-15.487 4.451-5.57 8.446-10.128 8.878-10.128.432 0 1.371.706 2.088 1.57.716.863 2.14 1.35 3.163 1.082 2.287-.598 1.791 1.538-1.999 8.608l-2.551 4.761 2.414 2.581c4.486 4.796 5.479 4.841 10.225.466 5.646-5.204 9.27-12.01 10.688-20.07 1.096-6.23 1.35-6.639 6.149-9.924C195.357 82.66 206 62.947 206 45.186V39h-6.186c-17.748 0-37.432 10.62-47.888 25.835-3.169 4.612-3.805 5.034-8.482 5.623-6.573.829-14.174 4.4-19.386 9.109-6.329 5.718-6.607 6.738-2.965 10.886 1.713 1.951 3.527 3.547 4.03 3.547.504 0 2.595-1.053 4.647-2.34 5.042-3.163 9.392-4.245 8.582-2.135-.327.852.164 2.387 1.09 3.411 1.611 1.78 1.243 2.221-8.308 9.955l-9.993 8.093-5.823-.609c-4.135-.432-6.884-.165-9.48.919-3.541 1.48-3.73 1.449-5.997-.982-5.89-6.315-19.373-9.942-27.271-7.335-3.319 1.095-3.958 1.014-5.896-.749-3.718-3.382-6.877-4.516-12.89-4.624-4.884-.087-5.899-.421-6.41-2.104-.333-1.1-1.723-3.491-3.089-5.313l-2.483-3.313 4.849-8.033c2.667-4.418 8.075-11.508 12.017-15.755 19.436-20.939 45.355-31.275 74.71-29.792 11.899.601 20.178 2.401 30.695 6.673 5.01 2.036 7.09 2.439 8.75 1.699 1.197-.534 2.173-1.24 2.169-1.569-.017-1.146-15.891-7.348-23.661-9.245-9.044-2.208-29.051-3.191-37.517-1.844M194 44.142c-19.282 2.274-35.037 14.769-46.425 36.817l-4.801 9.295 5.986 5.986 5.986 5.986 9.295-4.801c22.158-11.445 34.436-26.95 36.762-46.429.466-3.902.588-7.213.272-7.357-.316-.145-3.5.081-7.075.503m-16.253 10.842c-6.674 5.25-2.452 16.016 6.28 16.016 3.299 0 7.973-5.276 7.973-9 0-4.184-4.703-9-8.788-9-1.618 0-4.077.893-5.465 1.984m2.335 4.417c-1.593 1.919-1.075 4.574 1.168 5.987 2.565 1.615 5.25-.429 5.25-3.997 0-2.365-.47-2.946-2.586-3.192-1.422-.165-3.146.376-3.832 1.202M138 76.649c-4.317 1.491-8.968 4.462-12.478 7.972-2.81 2.809-.215 3.773 4.156 1.544 2.153-1.099 5.6-2.314 7.659-2.7 3.034-.57 4.119-1.439 5.724-4.584 2.255-4.421 1.826-4.61-5.061-2.232m27.879 25.353c-2.958 1.563-3.836 2.772-4.802 6.607-.65 2.581-1.872 6.027-2.715 7.657-.981 1.898-1.186 3.31-.57 3.926 1.275 1.275 6.634-4.457 9.061-9.692 1.588-3.425 3.556-10.59 2.872-10.456-.124.025-1.854.905-3.846 1.958m-.799 47.748c-5.531 4.521-2.491 14.25 4.454 14.25 4.49 0 7.466-3.194 7.466-8.014 0-6.645-6.962-10.288-11.92-6.236m16.587-1.083c-.367.366-.667 3.966-.667 8 0 7.155.061 7.333 2.5 7.333 2.393 0 2.5-.261 2.5-6.083 0-8.078 2.369-7.729 2.8.412.279 5.27.473 5.671 2.75 5.671 2.317 0 2.45-.313 2.45-5.777 0-7.801-1.751-10.223-7.39-10.223-2.352 0-4.577.3-4.943.667m18.507 1.647c-2.841 3.025-2.929 8.931-.174 11.686 1.407 1.407 3.333 2 6.5 2 3.833 0 4.5-.296 4.5-2 0-1.613-.667-2-3.441-2-1.893 0-3.719-.45-4.059-1-.378-.611 1.156-1 3.941-1 4.399 0 4.559-.105 4.559-3 0-6.323-7.497-9.294-11.826-4.686m-153.665 5.305c1.37 3.641 2.491 6.791 2.491 7 0 .21.845.381 1.877.381 1.29 0 2.504-1.484 3.885-4.75C58 150.594 58.328 149 56.668 149c-.854 0-2.218 2.089-3.265 5-.989 2.75-2.118 5-2.508 5-.391 0-1.287-2.25-1.992-5-.942-3.677-1.758-5-3.083-5-1.668 0-1.616.497.689 6.619m17.446-4.536c-1.338 2.502.753 5.376 4.619 6.346 1.334.335 2.426 1.335 2.426 2.222 0 1.304-.765 1.51-4 1.076-3.023-.406-4-.194-4 .868 0 1.018 1.368 1.405 4.965 1.405 3.958 0 5.184-.41 6.046-2.021 1.387-2.592.565-3.84-3.702-5.623-4.013-1.677-3.897-3.839.209-3.895 1.562-.021 3.023-.583 3.245-1.25.277-.83-1.028-1.211-4.144-1.211-3.586 0-4.785.441-5.664 2.083M81 158.5c0 7.778.272 9.5 1.5 9.5.933 0 1.5-.944 1.5-2.5 0-2.186.436-2.5 3.465-2.5 4.007 0 5.535-2.009 5.535-7.279 0-4.526-2.557-6.721-7.829-6.721H81v9.5m18.5-8.5c.34.55 1.626 1 2.859 1 2.187 0 4.641 1.66 4.641 3.14 0 .406-1.642.879-3.649 1.05-4.302.366-6.434 2.865-4.743 5.56.764 1.218 2.664 1.842 6.245 2.052l5.147.303v-5.118c0-7.443-1.133-8.987-6.594-8.987-2.761 0-4.283.39-3.906 1m18.155.829c-2.237 2.471-2.138 8.424.174 10.516 1.995 1.806 10.171 2.332 10.171.655 0-.55-1.155-1-2.566-1-4.179 0-6.434-1.752-6.434-5 0-3.25 2.665-5.317 6.196-4.806 1.165.168 2.31-.256 2.544-.944.72-2.11-8.11-1.604-10.085.579m16.902.394c-2.109 3.011-1.973 8.091.272 10.122 2.291 2.074 10.171 2.301 10.171.294 0-.896-.817-1.206-2.388-.905-2.575.492-6.612-1.198-6.612-2.769 0-.531 2.25-.965 5-.965 4.125 0 5-.311 5-1.777 0-3.436-2.912-6.223-6.5-6.223-2.366 0-3.856.67-4.943 2.223M84 155.531c0 4.9 1.817 6.695 4.513 4.458 3.004-2.493.775-8.989-3.084-8.989-1.028 0-1.429 1.271-1.429 4.531m53.2-3.331c-2.012 2.012-1.364 2.8 2.3 2.8 1.925 0 3.5-.36 3.5-.8 0-1.168-2.223-3.2-3.5-3.2-.605 0-1.64.54-2.3 1.2m30.228 2.231c-.859 3.422.164 5.794 2.319 5.379 2.457-.473 2.491-7.141.039-7.613-1.147-.221-1.928.519-2.358 2.234M203 153c0 .55 1.152 1 2.559 1 1.451 0 2.292-.433 1.941-1-.34-.55-1.491-1-2.559-1s-1.941.45-1.941 1m-101.5 5c-.994 1.608.425 3 3.059 3 1.774 0 2.441-.546 2.441-2s-.667-2-2.441-2c-1.343 0-2.719.45-3.059 1m52.889 1.43c-.996 2.595.399 4.739 2.857 4.39 1.652-.235 2.254-.987 2.254-2.82 0-1.833-.602-2.585-2.254-2.82-1.353-.192-2.496.308-2.857 1.25M94.215 175.5c-.031 2.2.176 3.419.461 2.708.424-1.055.821-1.055 2.171 0 1.436 1.123 1.492 1.086.427-.282-.968-1.243-.968-1.863 0-2.952 1.028-1.155.955-1.174-.447-.117-1.432 1.078-1.736.928-2.114-1.049-.248-1.3-.466-.562-.498 1.692m-12.465-.838c.688.278 1.813.278 2.5 0 .688-.277.125-.504-1.25-.504s-1.937.227-1.25.504m7.063.021c.721.289 1.584.253 1.916-.079.332-.332-.258-.568-1.312-.525-1.165.048-1.402.285-.604.604m11.96.518c-.592 1.607.11 3.799 1.217 3.799.452 0 .587-.9.3-2-.534-2.042 1.13-2.833 2.052-.975.279.564.392.451.25-.25-.353-1.745-3.228-2.177-3.819-.574m7.343 1.549c.089 2.108.233 2.283.616.75.275-1.1 1.01-2.331 1.634-2.735.72-.466.495-.74-.616-.75-1.274-.011-1.718.733-1.634 2.735m6.427-1.819c-.317.512-.049 1.256.595 1.654.698.432.904.292.51-.345-.363-.588-.095-1.297.596-1.576.899-.362.917-.529.065-.585-.655-.043-1.45.34-1.766.852m5.793.636c-.331.862-.117 2.052.475 2.644.769.769.907.426.481-1.201-.439-1.68-.227-2.149.806-1.786.771.27 1.332 1.278 1.245 2.24-.097 1.091.197 1.396.783.81 1.262-1.262.018-4.274-1.764-4.274-.784 0-1.695.705-2.026 1.567m8.298-.893c.624.454 1.382 1.726 1.685 2.826.434 1.577.511 1.488.366-.422-.102-1.332-.86-2.603-1.685-2.826-.991-.267-1.115-.124-.366.422m5.644.448c-1.256 1.256-.613 3.878.951 3.878.611 0 .547-.565-.162-1.419-.93-1.121-.799-1.64.628-2.47.993-.578 1.333-1.064.755-1.081-.577-.016-1.555.475-2.172 1.092m6.058.445c-.331.862-.117 2.052.475 2.644.769.769.917.464.516-1.067-.591-2.262 1.147-3.034 2.011-.894.301.747.536.545.583-.5.098-2.173-2.765-2.319-3.585-.183m-50.003 1.977c0 .801.375 1.456.834 1.456.458 0 .833-.423.833-.941s-.375-1.173-.833-1.456c-.459-.283-.834.14-.834.941M116.5 178c-.34.55-.141 1 .441 1s1.059-.45 1.059-1-.198-1-.441-1-.719.45-1.059 1m-35.364 9.711c.084 2.318.305 2.916.57 1.539.238-1.238.852-2.25 1.364-2.25.511 0 .982 1.012 1.046 2.25.094 1.83.205 1.906.591.409.275-1.065-.406-2.662-1.616-3.789L81 183.922l.136 3.789m7.498-.946c.624.404 1.359 1.635 1.634 2.735.383 1.533.527 1.358.616-.75.084-2.002-.36-2.746-1.634-2.735-1.111.01-1.336.284-.616.75m5.702.802c-.331.862-.117 2.052.475 2.644.769.769.924.49.54-.976-.376-1.437.016-2.195 1.306-2.528 1.701-.438 1.706-.484.062-.591-.98-.064-2.052.589-2.383 1.451m13.032-.083c-.349.908-.149 2.135.443 2.727.769.769.917.464.516-1.067-.561-2.148 1.058-3.047 2.015-1.119.279.564.401.479.27-.187-.377-1.928-2.549-2.165-3.244-.354m6.768 1.266c.112 2.264.212 2.363.562.561.234-1.203 1.185-2.389 2.113-2.634 1.197-.315 1.033-.479-.561-.561-1.846-.095-2.226.378-2.114 2.634m6.474-1.928c-.279.452.369 1.572 1.441 2.49 1.072.918 1.949 1.209 1.949.647s-.755-1.311-1.677-1.665c-1.5-.576-1.474-.723.25-1.399 1.604-.628 1.643-.766.236-.825-.93-.038-1.919.3-2.199.752m6.55 2.928c.158 3.692.166 3.7.563.5.222-1.787.878-3.25 1.457-3.25.585 0 .804.954.493 2.144-.401 1.531-.253 1.836.516 1.067 1.407-1.407.303-4.211-1.658-4.211-1.131 0-1.489.98-1.371 3.75m7.474-2.985c.624.404 1.359 1.635 1.634 2.735.383 1.533.527 1.358.616-.75.084-2.002-.36-2.746-1.634-2.735-1.111.01-1.336.284-.616.75m5.702.802c-.331.862-.117 2.052.475 2.644.769.769.924.49.54-.976-.376-1.437.016-2.195 1.306-2.528 1.701-.438 1.706-.484.062-.591-.98-.064-2.052.589-2.383 1.451m6.028-.074c-.346.903-.13 2.141.48 2.751.812.812.997.527.69-1.067-.28-1.456.079-2.177 1.082-2.177.826 0 1.224.45.884 1-.34.55-.104 1 .524 1 1.732 0 .55-2.453-1.36-2.824-.918-.178-1.953.415-2.3 1.317m-58.697 1.174c-.932.932-.832 2.333.166 2.333.459 0 .834-.675.834-1.5 0-1.699-.073-1.76-1-.833m14.544.732c.709.77 1.447 1.25 1.639 1.067.593-.564-.91-2.466-1.948-2.466-.54 0-.401.63.309 1.399m31.456-.732c-.932.932-.832 2.333.166 2.333.459 0 .834-.675.834-1.5 0-1.699-.073-1.76-1-.833" fill="#1976D2" fill-rule="evenodd"/></svg>